Coordinates
version=1
nRows=8
nColumns=36
inDegrees=yes

Units are S.I. units (second, meters, Newtons, ...)
If the header above contains a line with 'inDegrees', this indicates whether rotational values are in degrees (yes) or radians (no).

endheader
time	pelvis_tilt	pelvis_list	pelvis_rotation	pelvis_tx	pelvis_ty	pelvis_tz	hip_flexion_r	hip_adduction_r	hip_rotation_r	knee_angle_r	knee_angle_r_beta	ankle_angle_r	subtalar_angle_r	mtp_angle_r	hip_flexion_l	hip_adduction_l	hip_rotation_l	knee_angle_l	knee_angle_l_beta	ankle_angle_l	subtalar_angle_l	mtp_angle_l	lumbar_extension	lumbar_bending	lumbar_rotation	arm_flex_r	arm_add_r	arm_rot_r	elbow_flex_r	pro_sup_r	arm_flex_l	arm_add_l	arm_rot_l	elbow_flex_l	pro_sup_l
     15.21666670	     -0.82753472	     -4.65883158	     -3.71051486	      0.94466009	      0.92479613	      0.73123152	     18.94364474	      6.60191096	      6.39641380	     17.09329416	      0.29833426	      2.17423329	      0.23826429	     -7.49999987	     -5.09662712	     -7.38502096	     -4.11456803	     38.39655273	      0.67014627	      3.50776659	     -9.96030664	     -7.49999987	    -16.07236933	      5.69655191	     -2.49951342	      3.41029945	    -13.67341134	      0.01752323	     18.62588150	     81.82221131	     18.94254157	    -13.29861581	      7.77508494	     27.24670267	     81.49228992
     15.23333330	     -0.79638157	     -4.74769014	     -3.75472218	      0.94835978	      0.92937033	      0.73326070	     17.66408816	      6.88614716	      6.33077574	     17.28122763	      0.30161432	      3.44697186	      0.50145206	     -7.49999987	     -3.21325654	     -7.91746157	     -4.50831657	     42.89481244	      0.74865571	     -0.48531598	    -10.64886793	     -7.49999987	    -15.74552813	      5.97911025	     -2.06653903	      3.65023278	    -13.90208291	      0.02135388	     18.78255517	     81.98126422	     18.43857567	    -12.48962136	      7.46890620	     26.84930334	     81.55221632
     15.25000000	     -0.45823994	     -4.73991514	     -3.81197197	      0.95176940	      0.93291654	      0.73559208	     15.88579484	      7.06212954	      6.64949250	     17.13998723	      0.29914921	      4.28587245	      0.55812874	     -7.49999987	     -1.69738237	     -8.29127541	     -4.90547494	     46.85989497	      0.81785945	     -3.34841199	    -10.80298330	     -7.49999987	    -15.86320135	      6.07448206	     -1.50139372	      4.06138538	    -13.99776684	      0.03343010	     18.87344458	     82.03042472	     17.82740316	    -11.87446279	      7.39741365	     26.54041907	     81.55270807
     15.26666670	     -0.34502680	     -4.80071948	     -3.47093550	      0.95450168	      0.93511191	      0.73737660	     14.20463098	      7.12521873	      6.51440042	     16.66854233	      0.29092095	      4.71946172	      0.68998620	     -7.49999987	      0.16286413	     -8.48786896	     -4.41151228	     50.32538277	      0.87834363	     -5.60260243	    -12.71525402	     -7.49999987	    -15.63497528	      6.41182037	     -0.79710321	      4.21176747	    -14.25608469	      0.10878661	     18.66803336	     82.20984255	     17.30114238	    -10.81125283	      7.10054533	     25.67951051	     81.57098992
     15.28333330	     -0.11157293	     -4.50646650	     -3.07424484	      0.95543155	      0.93734831	      0.73994942	     12.46231929	      6.82267853	      6.54250207	     16.17674688	      0.28233750	      5.24018431	      0.74905168	     -7.49999987	      1.86012106	     -8.33005754	     -4.08653896	     53.00007253	      0.92502577	     -6.26991969	    -14.22290659	     -7.49999987	    -15.72050622	      6.20636456	     -0.18811842	      4.51605947	    -14.30516841	      0.22079972	     18.59362651	     82.38337591	     16.87567433	    -10.05059178	      6.89316242	     24.64848794	     81.59712966
     15.30000000	      0.20916694	     -3.97058421	     -2.56353039	      0.95371547	      0.93894224	      0.74202353	     10.73175885	      6.25555004	      6.46143384	     15.63842870	      0.27294207	      5.81714460	      0.88646341	     -7.49999987	      3.65392016	     -7.94758666	     -3.79459929	     55.21510399	      0.96368536	     -5.80543524	    -15.69873749	     -7.49999987	    -16.00773932	      5.66191060	      0.39407288	      4.96815912	    -14.25658577	      0.38927948	     18.55631942	     82.67189875	     16.74325194	     -9.43100339	      6.83866723	     23.37400358	     81.75023387
     15.31666670	      0.56596588	     -3.21705458	     -2.06799909	      0.94999585	      0.93781965	      0.74242043	      9.15362913	      5.46832091	      6.26789947	     15.21929166	      0.26562675	      6.63093762	      1.16960343	     -7.49999987	      5.72311200	     -7.37197436	     -3.66026489	     57.16331933	      0.99768813	     -4.51329535	    -16.77201310	     -7.49999987	    -16.49885829	      4.78050972	      1.07003109	      5.54321754	    -14.22091785	      0.64376518	     18.61483535	     82.64873657	     16.89310143	     -8.97784328	      7.29369564	     22.31277927	     81.69727547
     15.33333330	      0.99182015	     -2.31186196	     -1.60147470	      0.94581384	      0.93534616	      0.74183588	      7.60819334	      4.47868530	      5.84137534	     14.78220954	      0.25799823	      7.47304661	      1.53561260	     -7.49999987	      8.02102925	     -6.57022664	     -3.55216431	     58.90480141	      1.02808273	     -3.40631145	    -17.86633773	     -7.49999987	    -17.25169184	      3.69236749	      1.53006010	      6.22428084	    -14.17701216	      0.75313759	     19.28229841	     82.76138477	     17.04985456	     -8.79699909	      7.78516867	     22.00021785	     81.86044942
